<svg xmlns="http://www.w3.org/2000/svg" width="46" height="29" viewBox="0 0 46 29" fill="none">
<path d="M7.47857 8.73243C7.38075 7.96218 6.58741 7.40712 5.70661 7.49266C4.82579 7.5782 4.19105 8.27195 4.28887 9.04218L7.47857 8.73243ZM41.7111 9.04202C41.8089 8.27178 41.1741 7.57809 40.2932 7.49265C39.4124 7.4072 38.619 7.96235 38.5215 8.7326L41.7111 9.04202ZM1.60465 7.4841C0.718434 7.4841 0 8.11234 0 8.88731C0 9.66227 0.718434 10.2905 1.60465 10.2905V7.4841ZM44.3954 10.2905C45.2815 10.2905 46 9.66227 46 8.88731C46 8.11234 45.2815 7.4841 44.3954 7.4841V10.2905ZM6.58801 8.25977C6.19169 8.95292 6.51298 9.7958 7.30563 10.1424C8.09829 10.489 9.06217 10.208 9.4585 9.51484L6.58801 8.25977ZM13.7376 2.03105C14.1339 1.3379 13.8126 0.49502 13.0199 0.148445C12.2273 -0.198129 11.2634 0.0828315 10.8671 0.77598L13.7376 2.03105ZM36.5415 9.51484C36.9378 10.208 37.9016 10.489 38.6943 10.1424C39.487 9.7958 39.8084 8.95292 39.4119 8.25977L36.5415 9.51484ZM35.1329 0.77598C34.7366 0.0828315 33.7728 -0.198129 32.9801 0.148445C32.1874 0.49502 31.866 1.3379 32.2625 2.03105L35.1329 0.77598ZM14.9767 20.113C14.9767 20.8879 15.6952 21.5162 16.5814 21.5162C17.4676 21.5162 18.186 20.8879 18.186 20.113H14.9767ZM18.186 16.3711C18.186 15.5962 17.4676 14.9679 16.5814 14.9679C15.6952 14.9679 14.9767 15.5962 14.9767 16.3711H18.186ZM21.3953 20.113C21.3953 20.8879 22.1138 21.5162 23 21.5162C23.8862 21.5162 24.6047 20.8879 24.6047 20.113H21.3953ZM24.6047 16.3711C24.6047 15.5962 23.8862 14.9679 23 14.9679C22.1138 14.9679 21.3953 15.5962 21.3953 16.3711H24.6047ZM27.814 20.113C27.814 20.8879 28.5324 21.5162 29.4186 21.5162C30.3048 21.5162 31.0233 20.8879 31.0233 20.113H27.814ZM31.0233 16.3711C31.0233 15.5962 30.3048 14.9679 29.4186 14.9679C28.5324 14.9679 27.814 15.5962 27.814 16.3711H31.0233ZM4.28887 9.04218L6.24226 24.4233L9.43197 24.1135L7.47857 8.73243L4.28887 9.04218ZM6.24226 24.4233C6.57344 27.028 9.09071 28.9991 12.0878 29L12.089 26.1936C10.7267 26.1932 9.58251 25.2976 9.43197 24.1135L6.24226 24.4233ZM12.0878 29H33.9116L33.9118 26.1936H12.089L12.0878 29ZM33.9116 29C36.9098 29.0004 39.4286 27.0291 39.7598 24.4235L36.5702 24.1133C36.4196 25.2978 35.2747 26.1938 33.9118 26.1936L33.9116 29ZM39.7598 24.4235L41.7111 9.04202L38.5215 8.7326L36.5702 24.1133L39.7598 24.4235ZM1.60465 10.2905H44.3954V7.4841H1.60465V10.2905ZM9.4585 9.51484L13.7376 2.03105L10.8671 0.77598L6.58801 8.25977L9.4585 9.51484ZM39.4119 8.25977L35.1329 0.77598L32.2625 2.03105L36.5415 9.51484L39.4119 8.25977ZM18.186 20.113V16.3711H14.9767V20.113H18.186ZM24.6047 20.113V16.3711H21.3953V20.113H24.6047ZM31.0233 20.113V16.3711H27.814V20.113H31.0233Z" fill="black"/>
</svg>